<svg width="1080" height="1080" viewBox="0 0 1080 1080" fill="none" xmlns="http://www.w3.org/2000/svg">
<rect width="1080" height="1080" rx="540" fill="#7747FF"/>
<path d="M783.48 396.743H719.985C700.402 396.743 684.465 380.891 684.465 361.223V297.558C684.465 277.976 668.612 262.038 648.944 262.038H432.094C412.511 262.038 396.574 277.891 396.574 297.558V361.223C396.574 380.806 380.721 396.743 361.054 396.743H297.558C277.976 396.743 262.038 412.596 262.038 432.263V577.735C262.038 597.317 277.891 613.255 297.558 613.255H361.054C380.636 613.255 396.574 597.402 396.574 577.735V432.263C396.574 412.681 412.426 396.743 432.094 396.743H648.944C668.527 396.743 684.465 412.596 684.465 432.263V648.775C684.465 668.358 668.612 684.295 648.944 684.295H503.134C483.551 684.295 467.614 700.148 467.614 719.815V783.48C467.614 803.063 483.467 819 503.134 819H648.944C668.527 819 684.465 803.147 684.465 783.48V719.815C684.465 700.232 700.317 684.295 719.985 684.295H783.48C803.063 684.295 819 668.442 819 648.775V432.263C819 412.681 803.063 396.743 783.48 396.743Z" fill="#F3F3F3"/>
<path d="M361.135 684.294H297.724C278.107 684.294 262.204 700.197 262.204 719.814V783.394C262.204 803.011 278.107 818.914 297.724 818.914H361.135C380.752 818.914 396.655 803.011 396.655 783.394V719.814C396.655 700.197 380.752 684.294 361.135 684.294Z" fill="#F3F3F3"/>
<path d="M577.988 467.785H503.217C483.6 467.785 467.697 483.688 467.697 503.305V577.736C467.697 597.354 483.6 613.257 503.217 613.257H577.988C597.605 613.257 613.508 597.354 613.508 577.736V503.305C613.508 483.688 597.605 467.785 577.988 467.785Z" fill="#F3F3F3"/>
</svg>
