<?xml version="1.0" standalone="no"?>
<!DOCTYPE svg PUBLIC "-//W3C//DTD SVG 20010904//EN"
 "http://www.w3.org/TR/2001/REC-SVG-20010904/DTD/svg10.dtd">
<svg version="1.0" xmlns="http://www.w3.org/2000/svg"
 width="200.000000pt" height="200.000000pt" viewBox="0 0 200.000000 200.000000"
 preserveAspectRatio="xMidYMid meet">

<g transform="translate(0.000000,200.000000) scale(0.100000,-0.100000)"
fill="#FFF" stroke="none">
<path d="M910 1994 c-80 -10 -229 -48 -300 -78 -225 -95 -431 -301 -525 -525
-129 -306 -99 -655 80 -932 61 -95 199 -233 294 -294 273 -177 620 -208 923
-85 164 67 355 227 454 379 211 329 211 753 0 1082 -99 152 -290 312 -454 379
-133 54 -351 88 -472 74z m279 -184 c511 -123 783 -683 562 -1156 -87 -185
-220 -318 -405 -405 -475 -222 -1034 51 -1157 567 -18 75 -20 110 -17 219 4
111 9 143 36 220 46 137 102 227 206 330 126 125 251 195 411 230 95 21 266
18 364 -5z"/>
<path d="M874 1710 c-143 -26 -266 -92 -379 -205 -91 -91 -144 -175 -182 -290
-22 -68 -26 -98 -27 -205 0 -91 4 -142 17 -189 90 -319 366 -532 692 -533 169
-1 320 51 449 155 174 140 269 339 268 562 -1 323 -216 604 -528 690 -71 19
-240 27 -310 15z m34 -471 l2 -157 33 33 c91 91 266 61 329 -57 21 -40 23 -58
26 -245 l4 -203 -55 0 -55 0 -4 183 c-3 203 -12 232 -74 262 -99 47 -211 -21
-202 -123 3 -33 6 -37 33 -38 17 -1 33 -2 38 -3 4 -1 7 -21 7 -46 l0 -45 -145
0 -145 0 0 45 c0 25 5 46 10 46 6 1 25 2 43 3 l32 1 3 240 c1 132 4 246 7 253
3 9 21 12 57 10 l53 -3 3 -156z m82 -584 l0 -45 -145 0 -145 0 0 45 0 45 145
0 145 0 0 -45z"/>
</g>
</svg>
