<svg width="82" height="20" viewBox="0 0 82 20" fill="none" xmlns="http://www.w3.org/2000/svg">
<g clip-path="url(#clip0_32_1385)">
<path d="M18.9304 4.8358H16.6248C15.9134 4.8358 15.337 4.26561 15.337 3.56189V1.27391C15.337 0.570191 14.7606 0 14.0492 0H6.17273C5.46133 0 4.88492 0.570191 4.88492 1.27391V3.55828C4.88492 4.262 4.30851 4.83219 3.59711 4.83219H1.28781C0.576413 4.83219 0 5.40238 0 6.1061V11.3316C0 12.0354 0.576413 12.6056 1.28781 12.6056H3.59346C4.30486 12.6056 4.88127 12.0354 4.88127 11.3316V6.1061C4.88127 5.40238 5.45769 4.83219 6.16908 4.83219H14.0455C14.7569 4.83219 15.3333 5.40238 15.3333 6.1061V13.8831C15.3333 14.5868 14.7569 15.157 14.0455 15.157H8.74835C8.03695 15.157 7.46054 15.7272 7.46054 16.4309V18.7153C7.46054 19.419 8.03695 19.9892 8.74835 19.9892H14.0455C14.7569 19.9892 15.3333 19.419 15.3333 18.7153V16.4309C15.3333 15.7272 15.9097 15.157 16.6211 15.157H18.9268C19.6382 15.157 20.2146 14.5868 20.2146 13.8831V6.1061C20.2146 5.40238 19.6382 4.83219 18.9268 4.83219L18.9304 4.8358Z" fill="#7747FF"/>
<path d="M3.59711 15.1642H1.28781C0.576572 15.1642 0 15.7345 0 16.4381V18.7261C0 19.4296 0.576572 20 1.28781 20H3.59711C4.30835 20 4.88492 19.4296 4.88492 18.7261V16.4381C4.88492 15.7345 4.30835 15.1642 3.59711 15.1642Z" fill="#7747FF"/>
<path d="M11.47 7.38684H8.74842C8.03718 7.38684 7.46061 7.95719 7.46061 8.66075V11.3385C7.46061 12.042 8.03718 12.6124 8.74842 12.6124H11.47C12.1812 12.6124 12.7578 12.042 12.7578 11.3385V8.66075C12.7578 7.95719 12.1812 7.38684 11.47 7.38684Z" fill="#7747FF"/>
<path d="M26.0001 14.7151V5.29566C26.0001 4.99508 26.2449 4.75244 26.5483 4.75244H34.7286C35.032 4.75244 35.2769 4.99508 35.2769 5.29566V5.5202C35.2769 5.82078 35.5218 6.06342 35.8252 6.06342H36.0518C36.3552 6.06342 36.6001 6.30606 36.6001 6.60664V9.45674C36.6001 9.75733 36.3552 9.99997 36.0518 9.99997H35.8252C35.5218 9.99997 35.2769 10.2426 35.2769 10.5432V10.7677C35.2769 11.0683 35.032 11.3109 34.7286 11.3109H29.1983C28.8949 11.3109 28.6501 11.5536 28.6501 11.8542V14.7043C28.6501 15.0049 28.4052 15.2475 28.1018 15.2475H26.5483C26.2449 15.2475 26.0001 15.0049 26.0001 14.7043V14.7151ZM28.9315 8.69261H33.6759C33.8294 8.69261 33.9537 8.56948 33.9537 8.41738V7.65687C33.9537 7.50477 33.8294 7.38164 33.6759 7.38164H28.9315C28.778 7.38164 28.6537 7.50477 28.6537 7.65687V8.41738C28.6537 8.56948 28.778 8.69261 28.9315 8.69261Z" fill="#7747FF"/>
<path d="M37.9333 14.7083V5.29529C37.9333 4.99491 38.1735 4.75244 38.4712 4.75244H39.9953C40.293 4.75244 40.5333 4.99491 40.5333 5.29529V14.7046C40.5333 15.005 40.293 15.2475 39.9953 15.2475H38.4712C38.1735 15.2475 37.9333 15.005 37.9333 14.7046V14.7083Z" fill="#7747FF"/>
<path d="M41.8666 14.7045V10.5412C41.8666 10.2407 42.1115 9.99816 42.4149 9.99816H42.6415C42.9449 9.99816 43.1898 9.7556 43.1898 9.45512V9.23067C43.1898 8.93019 42.9449 8.68763 42.6415 8.68763H42.4149C42.1115 8.68763 41.8666 8.44508 41.8666 8.1446V5.29548C41.8666 4.995 42.1115 4.75244 42.4149 4.75244H43.9683C44.2717 4.75244 44.5166 4.995 44.5166 5.29548V8.1446C44.5166 8.44508 44.7615 8.68763 45.0649 8.68763H49.2683C49.5717 8.68763 49.8166 8.44508 49.8166 8.1446V5.29548C49.8166 4.995 50.0615 4.75244 50.3649 4.75244H51.9183C52.2217 4.75244 52.4666 4.995 52.4666 5.29548V8.1446C52.4666 8.44508 52.2217 8.68763 51.9183 8.68763H51.6917C51.3883 8.68763 51.1434 8.93019 51.1434 9.23067V9.45512C51.1434 9.7556 51.3883 9.99816 51.6917 9.99816H51.9183C52.2217 9.99816 52.4666 10.2407 52.4666 10.5412V14.7045C52.4666 15.0049 52.2217 15.2475 51.9183 15.2475H50.3649C50.0615 15.2475 49.8166 15.0049 49.8166 14.7045V11.8553C49.8166 11.5549 49.5717 11.3123 49.2683 11.3123H45.0649C44.7615 11.3123 44.5166 11.5549 44.5166 11.8553V14.7045C44.5166 15.0049 44.2717 15.2475 43.9683 15.2475H42.4149C42.1115 15.2475 41.8666 15.0049 41.8666 14.7045Z" fill="#7747FF"/>
<path fill-rule="evenodd" clip-rule="evenodd" d="M64.4126 15.2439L72.3338 15.2439C72.3348 15.2439 72.3356 15.2447 72.3356 15.2457C72.3356 15.2467 72.3364 15.2475 72.3375 15.2475C72.6304 15.2465 72.8666 15.0044 72.8666 14.7046L72.8666 13.1666C72.8666 12.8662 72.6294 12.6237 72.3356 12.6237L65.6977 12.6237C65.4038 12.6237 65.1666 12.3813 65.1666 12.0809V11.6299C65.1666 11.3225 65.42 11.0733 65.7325 11.0733H71.0303C71.2189 11.0733 71.3711 10.8933 71.3711 10.6703V9.5284C71.3711 9.3054 71.2189 9.12538 71.0303 9.12538H65.7325C65.42 9.12538 65.1666 8.8762 65.1666 8.56883V7.91905C65.1666 7.61868 65.4038 7.37621 65.6977 7.37621L72.3356 7.3762C72.6294 7.3762 72.8666 7.13373 72.8666 6.83336V5.29529C72.8666 4.99491 72.6294 4.75244 72.3356 4.75244L64.4126 4.75244C64.1187 4.75244 63.8815 4.99491 63.8815 5.29529V5.51966C63.8815 5.82004 63.6443 6.06251 63.3505 6.06251L63.131 6.06251C62.8372 6.06251 62.6 6.30498 62.6 6.60536L62.6 13.391C62.6 13.6913 62.8372 13.9338 63.131 13.9338H63.3505C63.6443 13.9338 63.8815 14.1763 63.8815 14.4766V14.701C63.8815 15.0014 64.1187 15.2439 64.4126 15.2439Z" fill="#7747FF"/>
<path d="M54.3419 13.9299C53.9084 13.9299 53.8 13.5306 53.8 13.3176V5.24546C53.8 4.93673 54.0516 4.68646 54.362 4.68646H55.7269C56.0373 4.68646 56.2889 4.93673 56.2889 5.24546V5.26542V12.3727C56.2889 12.7476 56.5937 13.0515 56.9706 13.0515H60.9254C61.1502 13.0515 61.2466 13.2777 61.2667 13.3909V14.8882C61.2667 15.1437 61.0659 15.2342 60.9656 15.2475H55.7469C55.47 15.2475 55.3148 15.0513 55.2445 14.8895C55.2107 14.8116 55.205 14.7258 55.205 14.641V14.429C55.205 14.2027 55.0371 14.0632 54.8797 13.9893C54.7674 13.9365 54.641 13.9299 54.5167 13.9299H54.3419Z" fill="#7747FF"/>
<path fill-rule="evenodd" clip-rule="evenodd" d="M74.2 5.14998C74.2 4.93043 74.38 4.75244 74.602 4.75244H76.2904C76.5124 4.75244 76.6923 4.93043 76.6923 5.14998V8.49528C76.6923 8.80265 76.9443 9.05183 77.2551 9.05183H78.945C79.2558 9.05183 79.5078 8.80265 79.5078 8.49528L79.5078 5.14998C79.5078 4.93043 79.6877 4.75244 79.9097 4.75244L81.5981 4.75244C81.8201 4.75244 82 4.93043 82 5.14998L82 9.20489C82 9.42444 81.8201 9.60243 81.5981 9.60243H81.5579C81.2471 9.60243 80.9951 9.8516 80.9951 10.159V10.483C80.9951 10.7025 80.8151 10.8805 80.5931 10.8805H79.9043C79.5935 10.8805 79.3415 11.1297 79.3415 11.4371V14.85C79.3415 15.0695 79.1616 15.2475 78.9395 15.2475H77.085C76.863 15.2475 76.683 15.0695 76.683 14.85V11.4371C76.683 11.1297 76.4311 10.8805 76.1202 10.8805H75.4879C75.2659 10.8805 75.0859 10.7025 75.0859 10.483V10.081C75.0859 9.81669 74.8693 9.60243 74.602 9.60243C74.38 9.60243 74.2 9.42444 74.2 9.20489V5.14998Z" fill="#7747FF"/>
</g>
<defs>
<clipPath id="clip0_32_1385">
<rect width="82" height="20" fill="white"/>
</clipPath>
</defs>
</svg>
